<svg width="1280" height="860" viewBox="0 0 1280 860" fill="none" xmlns="http://www.w3.org/2000/svg">
  <rect width="1280" height="860" rx="40" fill="#0A121B"/>
  <rect x="24" y="24" width="1232" height="812" rx="28" fill="#101A25" stroke="rgba(255,255,255,0.08)"/>
  <rect x="54" y="54" width="1172" height="68" rx="20" fill="#0D1721" stroke="rgba(255,255,255,0.06)"/>
  <circle cx="92" cy="88" r="8" fill="#3DA0FF"/>
  <circle cx="118" cy="88" r="8" fill="#4FD1C5"/>
  <circle cx="144" cy="88" r="8" fill="#F6B458"/>
  <rect x="180" y="72" width="176" height="32" rx="12" fill="#142131"/>
  <rect x="910" y="72" width="108" height="32" rx="12" fill="#142131"/>
  <rect x="1036" y="72" width="160" height="32" rx="16" fill="#1E5ED6"/>

  <rect x="54" y="146" width="280" height="660" rx="24" fill="#0D1721" stroke="rgba(255,255,255,0.06)"/>
  <rect x="84" y="182" width="148" height="28" rx="14" fill="#153348"/>
  <rect x="84" y="236" width="220" height="88" rx="18" fill="#132233"/>
  <rect x="84" y="340" width="220" height="88" rx="18" fill="#132233"/>
  <rect x="84" y="444" width="220" height="88" rx="18" fill="#132233"/>
  <rect x="84" y="566" width="220" height="150" rx="18" fill="#132233"/>

  <rect x="362" y="146" width="864" height="320" rx="24" fill="#0D1721" stroke="rgba(255,255,255,0.06)"/>
  <rect x="396" y="182" width="256" height="28" rx="14" fill="#153348"/>
  <rect x="396" y="234" width="792" height="76" rx="20" fill="#122031"/>
  <rect x="396" y="334" width="182" height="96" rx="20" fill="#14304A"/>
  <rect x="596" y="334" width="182" height="96" rx="20" fill="#123B39"/>
  <rect x="796" y="334" width="182" height="96" rx="20" fill="#483521"/>
  <rect x="996" y="334" width="192" height="96" rx="20" fill="#442A33"/>

  <rect x="362" y="494" width="416" height="312" rx="24" fill="#0D1721" stroke="rgba(255,255,255,0.06)"/>
  <rect x="812" y="494" width="414" height="312" rx="24" fill="#0D1721" stroke="rgba(255,255,255,0.06)"/>
  <rect x="396" y="528" width="188" height="24" rx="12" fill="#153348"/>
  <rect x="396" y="574" width="348" height="58" rx="18" fill="#122031"/>
  <rect x="396" y="646" width="348" height="58" rx="18" fill="#122031"/>
  <rect x="396" y="718" width="348" height="58" rx="18" fill="#122031"/>

  <rect x="846" y="528" width="180" height="24" rx="12" fill="#153348"/>
  <rect x="846" y="574" width="344" height="58" rx="18" fill="#122031"/>
  <rect x="846" y="646" width="344" height="58" rx="18" fill="#122031"/>
  <rect x="846" y="718" width="344" height="58" rx="18" fill="#122031"/>
</svg>
